<svg xmlns="http://www.w3.org/2000/svg" width="400" height="400" viewBox="0 0 400 400"><circle cx="91.89" cy="5.41" r="3.24" fill="#1a1a1a"/><circle cx="102.7" cy="5.41" r="3.24" fill="#1a1a1a"/><circle cx="124.32" cy="5.41" r="3.24" fill="#1a1a1a"/><circle cx="135.14" cy="5.41" r="3.24" fill="#1a1a1a"/><circle cx="145.95" cy="5.41" r="3.24" fill="#1a1a1a"/><circle cx="156.76" cy="5.41" r="3.24" fill="#1a1a1a"/><circle cx="167.57" cy="5.41" r="3.24" fill="#1a1a1a"/><circle cx="178.38" cy="5.41" r="3.24" fill="#1a1a1a"/><circle cx="189.19" cy="5.41" r="3.24" fill="#1a1a1a"/><circle cx="210.81" cy="5.41" r="3.24" fill="#1a1a1a"/><circle cx="232.43" cy="5.41" r="3.24" fill="#1a1a1a"/><circle cx="243.24" cy="5.41" r="3.24" fill="#1a1a1a"/><circle cx="264.86" cy="5.41" r="3.24" fill="#1a1a1a"/><circle cx="286.49" cy="5.41" r="3.24" fill="#1a1a1a"/><circle cx="308.11" cy="5.41" r="3.24" fill="#1a1a1a"/><circle cx="124.32" cy="16.22" r="3.24" fill="#1a1a1a"/><circle cx="135.14" cy="16.22" r="3.24" fill="#1a1a1a"/><circle cx="189.19" cy="16.22" r="3.24" fill="#1a1a1a"/><circle cx="200" cy="16.22" r="3.24" fill="#1a1a1a"/><circle cx="243.24" cy="16.22" r="3.24" fill="#1a1a1a"/><circle cx="254.05" cy="16.22" r="3.24" fill="#1a1a1a"/><circle cx="275.68" cy="16.22" r="3.24" fill="#1a1a1a"/><circle cx="308.11" cy="16.22" r="3.24" fill="#1a1a1a"/><circle cx="91.89" cy="27.03" r="3.24" fill="#1a1a1a"/><circle cx="102.7" cy="27.03" r="3.24" fill="#1a1a1a"/><circle cx="124.32" cy="27.03" r="3.24" fill="#1a1a1a"/><circle cx="145.95" cy="27.03" r="3.24" fill="#1a1a1a"/><circle cx="189.19" cy="27.03" r="3.24" fill="#1a1a1a"/><circle cx="232.43" cy="27.03" r="3.24" fill="#1a1a1a"/><circle cx="297.3" cy="27.03" r="3.24" fill="#1a1a1a"/><circle cx="308.11" cy="27.03" r="3.24" fill="#1a1a1a"/><circle cx="102.7" cy="37.84" r="3.24" fill="#1a1a1a"/><circle cx="135.14" cy="37.84" r="3.24" fill="#1a1a1a"/><circle cx="156.76" cy="37.84" r="3.24" fill="#1a1a1a"/><circle cx="167.57" cy="37.84" r="3.24" fill="#1a1a1a"/><circle cx="178.38" cy="37.84" r="3.24" fill="#1a1a1a"/><circle cx="200" cy="37.84" r="3.24" fill="#1a1a1a"/><circle cx="221.62" cy="37.84" r="3.24" fill="#1a1a1a"/><circle cx="243.24" cy="37.84" r="3.24" fill="#1a1a1a"/><circle cx="275.68" cy="37.84" r="3.24" fill="#1a1a1a"/><circle cx="297.3" cy="37.84" r="3.24" fill="#1a1a1a"/><circle cx="308.11" cy="37.84" r="3.24" fill="#1a1a1a"/><circle cx="91.89" cy="48.65" r="3.24" fill="#1a1a1a"/><circle cx="156.76" cy="48.65" r="3.24" fill="#1a1a1a"/><circle cx="178.38" cy="48.65" r="3.24" fill="#1a1a1a"/><circle cx="189.19" cy="48.65" r="3.24" fill="#1a1a1a"/><circle cx="200" cy="48.65" r="3.24" fill="#1a1a1a"/><circle cx="232.43" cy="48.65" r="3.24" fill="#1a1a1a"/><circle cx="243.24" cy="48.65" r="3.24" fill="#1a1a1a"/><circle cx="264.86" cy="48.65" r="3.24" fill="#1a1a1a"/><circle cx="286.49" cy="48.65" r="3.24" fill="#1a1a1a"/><circle cx="102.7" cy="59.46" r="3.24" fill="#1a1a1a"/><circle cx="124.32" cy="59.46" r="3.24" fill="#1a1a1a"/><circle cx="156.76" cy="59.46" r="3.24" fill="#1a1a1a"/><circle cx="167.57" cy="59.46" r="3.24" fill="#1a1a1a"/><circle cx="178.38" cy="59.46" r="3.24" fill="#1a1a1a"/><circle cx="189.19" cy="59.46" r="3.24" fill="#1a1a1a"/><circle cx="200" cy="59.46" r="3.24" fill="#1a1a1a"/><circle cx="221.62" cy="59.46" r="3.24" fill="#1a1a1a"/><circle cx="232.43" cy="59.46" r="3.24" fill="#1a1a1a"/><circle cx="243.24" cy="59.46" r="3.24" fill="#1a1a1a"/><circle cx="264.86" cy="59.46" r="3.24" fill="#1a1a1a"/><circle cx="308.11" cy="59.46" r="3.24" fill="#1a1a1a"/><circle cx="91.89" cy="70.27" r="3.24" fill="#1a1a1a"/><circle cx="113.51" cy="70.27" r="3.24" fill="#1a1a1a"/><circle cx="135.14" cy="70.27" r="3.24" fill="#1a1a1a"/><circle cx="156.76" cy="70.27" r="3.24" fill="#1a1a1a"/><circle cx="178.38" cy="70.27" r="3.24" fill="#1a1a1a"/><circle cx="200" cy="70.27" r="3.24" fill="#1a1a1a"/><circle cx="221.62" cy="70.27" r="3.24" fill="#1a1a1a"/><circle cx="243.24" cy="70.27" r="3.24" fill="#1a1a1a"/><circle cx="264.86" cy="70.27" r="3.24" fill="#1a1a1a"/><circle cx="286.49" cy="70.27" r="3.24" fill="#1a1a1a"/><circle cx="308.11" cy="70.27" r="3.24" fill="#1a1a1a"/><circle cx="91.89" cy="81.08" r="3.24" fill="#1a1a1a"/><circle cx="145.95" cy="81.08" r="3.24" fill="#1a1a1a"/><circle cx="156.76" cy="81.08" r="3.24" fill="#1a1a1a"/><circle cx="178.38" cy="81.08" r="3.24" fill="#1a1a1a"/><circle cx="189.19" cy="81.08" r="3.24" fill="#1a1a1a"/><circle cx="200" cy="81.08" r="3.24" fill="#1a1a1a"/><circle cx="221.62" cy="81.08" r="3.24" fill="#1a1a1a"/><circle cx="232.43" cy="81.08" r="3.24" fill="#1a1a1a"/><circle cx="286.49" cy="81.08" r="3.24" fill="#1a1a1a"/><circle cx="297.3" cy="81.08" r="3.24" fill="#1a1a1a"/><circle cx="308.11" cy="81.08" r="3.24" fill="#1a1a1a"/><circle cx="59.46" cy="91.89" r="3.24" fill="#1a1a1a"/><circle cx="70.27" cy="91.89" r="3.24" fill="#1a1a1a"/><circle cx="124.32" cy="91.89" r="3.24" fill="#1a1a1a"/><circle cx="135.14" cy="91.89" r="3.24" fill="#1a1a1a"/><circle cx="156.76" cy="91.89" r="3.24" fill="#1a1a1a"/><circle cx="178.38" cy="91.89" r="3.24" fill="#1a1a1a"/><circle cx="210.81" cy="91.89" r="3.24" fill="#1a1a1a"/><circle cx="221.62" cy="91.89" r="3.24" fill="#1a1a1a"/><circle cx="232.43" cy="91.89" r="3.24" fill="#1a1a1a"/><circle cx="243.24" cy="91.89" r="3.24" fill="#1a1a1a"/><circle cx="329.73" cy="91.89" r="3.24" fill="#1a1a1a"/><circle cx="351.35" cy="91.89" r="3.24" fill="#1a1a1a"/><circle cx="372.97" cy="91.89" r="3.24" fill="#1a1a1a"/><circle cx="394.59" cy="91.89" r="3.24" fill="#1a1a1a"/><circle cx="27.03" cy="102.7" r="3.24" fill="#1a1a1a"/><circle cx="48.65" cy="102.7" r="3.24" fill="#1a1a1a"/><circle cx="59.46" cy="102.7" r="3.24" fill="#1a1a1a"/><circle cx="91.89" cy="102.7" r="3.24" fill="#1a1a1a"/><circle cx="102.7" cy="102.7" r="3.24" fill="#1a1a1a"/><circle cx="145.95" cy="102.7" r="3.24" fill="#1a1a1a"/><circle cx="156.76" cy="102.7" r="3.24" fill="#1a1a1a"/><circle cx="167.57" cy="102.7" r="3.24" fill="#1a1a1a"/><circle cx="178.38" cy="102.7" r="3.24" fill="#1a1a1a"/><circle cx="200" cy="102.7" r="3.24" fill="#1a1a1a"/><circle cx="210.81" cy="102.7" r="3.24" fill="#1a1a1a"/><circle cx="232.43" cy="102.7" r="3.24" fill="#1a1a1a"/><circle cx="275.68" cy="102.7" r="3.24" fill="#1a1a1a"/><circle cx="318.92" cy="102.7" r="3.24" fill="#1a1a1a"/><circle cx="340.54" cy="102.7" r="3.24" fill="#1a1a1a"/><circle cx="351.35" cy="102.7" r="3.24" fill="#1a1a1a"/><circle cx="362.16" cy="102.7" r="3.24" fill="#1a1a1a"/><circle cx="372.97" cy="102.7" r="3.24" fill="#1a1a1a"/><circle cx="5.41" cy="113.51" r="3.24" fill="#1a1a1a"/><circle cx="48.65" cy="113.51" r="3.24" fill="#1a1a1a"/><circle cx="59.46" cy="113.51" r="3.24" fill="#1a1a1a"/><circle cx="70.27" cy="113.51" r="3.24" fill="#1a1a1a"/><circle cx="81.08" cy="113.51" r="3.24" fill="#1a1a1a"/><circle cx="91.89" cy="113.51" r="3.24" fill="#1a1a1a"/><circle cx="102.7" cy="113.51" r="3.24" fill="#1a1a1a"/><circle cx="113.51" cy="113.51" r="3.24" fill="#1a1a1a"/><circle cx="145.95" cy="113.51" r="3.24" fill="#1a1a1a"/><circle cx="178.38" cy="113.51" r="3.24" fill="#1a1a1a"/><circle cx="221.62" cy="113.51" r="3.24" fill="#1a1a1a"/><circle cx="232.43" cy="113.51" r="3.24" fill="#1a1a1a"/><circle cx="254.05" cy="113.51" r="3.24" fill="#1a1a1a"/><circle cx="275.68" cy="113.51" r="3.24" fill="#1a1a1a"/><circle cx="286.49" cy="113.51" r="3.24" fill="#1a1a1a"/><circle cx="329.73" cy="113.51" r="3.24" fill="#1a1a1a"/><circle cx="340.54" cy="113.51" r="3.24" fill="#1a1a1a"/><circle cx="362.16" cy="113.51" r="3.24" fill="#1a1a1a"/><circle cx="383.78" cy="113.51" r="3.24" fill="#1a1a1a"/><circle cx="394.59" cy="113.51" r="3.24" fill="#1a1a1a"/><circle cx="5.41" cy="124.32" r="3.24" fill="#1a1a1a"/><circle cx="16.22" cy="124.32" r="3.24" fill="#1a1a1a"/><circle cx="59.46" cy="124.32" r="3.24" fill="#1a1a1a"/><circle cx="91.89" cy="124.32" r="3.24" fill="#1a1a1a"/><circle cx="167.57" cy="124.32" r="3.24" fill="#1a1a1a"/><circle cx="189.19" cy="124.32" r="3.24" fill="#1a1a1a"/><circle cx="200" cy="124.32" r="3.24" fill="#1a1a1a"/><circle cx="210.81" cy="124.32" r="3.24" fill="#1a1a1a"/><circle cx="221.62" cy="124.32" r="3.24" fill="#1a1a1a"/><circle cx="243.24" cy="124.32" r="3.24" fill="#1a1a1a"/><circle cx="264.86" cy="124.32" r="3.24" fill="#1a1a1a"/><circle cx="286.49" cy="124.32" r="3.24" fill="#1a1a1a"/><circle cx="297.3" cy="124.32" r="3.24" fill="#1a1a1a"/><circle cx="308.11" cy="124.32" r="3.24" fill="#1a1a1a"/><circle cx="329.73" cy="124.32" r="3.24" fill="#1a1a1a"/><circle cx="340.54" cy="124.32" r="3.24" fill="#1a1a1a"/><circle cx="351.35" cy="124.32" r="3.24" fill="#1a1a1a"/><circle cx="362.16" cy="124.32" r="3.24" fill="#1a1a1a"/><circle cx="5.41" cy="135.14" r="3.24" fill="#1a1a1a"/><circle cx="37.84" cy="135.14" r="3.24" fill="#1a1a1a"/><circle cx="48.65" cy="135.14" r="3.24" fill="#1a1a1a"/><circle cx="70.27" cy="135.14" r="3.24" fill="#1a1a1a"/><circle cx="81.08" cy="135.14" r="3.24" fill="#1a1a1a"/><circle cx="91.89" cy="135.14" r="3.24" fill="#1a1a1a"/><circle cx="102.7" cy="135.14" r="3.24" fill="#1a1a1a"/><circle cx="113.51" cy="135.14" r="3.24" fill="#1a1a1a"/><circle cx="135.14" cy="135.14" r="3.24" fill="#1a1a1a"/><circle cx="145.95" cy="135.14" r="3.24" fill="#1a1a1a"/><circle cx="210.81" cy="135.14" r="3.24" fill="#1a1a1a"/><circle cx="232.43" cy="135.14" r="3.24" fill="#1a1a1a"/><circle cx="243.24" cy="135.14" r="3.24" fill="#1a1a1a"/><circle cx="264.86" cy="135.14" r="3.24" fill="#1a1a1a"/><circle cx="308.11" cy="135.14" r="3.24" fill="#1a1a1a"/><circle cx="329.73" cy="135.14" r="3.24" fill="#1a1a1a"/><circle cx="362.16" cy="135.14" r="3.24" fill="#1a1a1a"/><circle cx="16.22" cy="145.95" r="3.24" fill="#1a1a1a"/><circle cx="27.03" cy="145.95" r="3.24" fill="#1a1a1a"/><circle cx="37.84" cy="145.95" r="3.24" fill="#1a1a1a"/><circle cx="59.46" cy="145.95" r="3.24" fill="#1a1a1a"/><circle cx="81.08" cy="145.95" r="3.24" fill="#1a1a1a"/><circle cx="91.89" cy="145.95" r="3.24" fill="#1a1a1a"/><circle cx="124.32" cy="145.95" r="3.24" fill="#1a1a1a"/><circle cx="135.14" cy="145.95" r="3.24" fill="#1a1a1a"/><circle cx="145.95" cy="145.95" r="3.24" fill="#1a1a1a"/><circle cx="156.76" cy="145.95" r="3.24" fill="#1a1a1a"/><circle cx="200" cy="145.95" r="3.24" fill="#1a1a1a"/><circle cx="221.62" cy="145.95" r="3.24" fill="#1a1a1a"/><circle cx="254.05" cy="145.95" r="3.24" fill="#1a1a1a"/><circle cx="275.68" cy="145.95" r="3.24" fill="#1a1a1a"/><circle cx="297.3" cy="145.95" r="3.24" fill="#1a1a1a"/><circle cx="308.11" cy="145.95" r="3.24" fill="#1a1a1a"/><circle cx="318.92" cy="145.95" r="3.24" fill="#1a1a1a"/><circle cx="340.54" cy="145.95" r="3.24" fill="#1a1a1a"/><circle cx="372.97" cy="145.95" r="3.24" fill="#1a1a1a"/><circle cx="70.27" cy="156.76" r="3.24" fill="#1a1a1a"/><circle cx="102.7" cy="156.76" r="3.24" fill="#1a1a1a"/><circle cx="145.95" cy="156.76" r="3.24" fill="#1a1a1a"/><circle cx="167.57" cy="156.76" r="3.24" fill="#1a1a1a"/><circle cx="210.81" cy="156.76" r="3.24" fill="#1a1a1a"/><circle cx="221.62" cy="156.76" r="3.24" fill="#1a1a1a"/><circle cx="243.24" cy="156.76" r="3.24" fill="#1a1a1a"/><circle cx="275.68" cy="156.76" r="3.24" fill="#1a1a1a"/><circle cx="286.49" cy="156.76" r="3.24" fill="#1a1a1a"/><circle cx="297.3" cy="156.76" r="3.24" fill="#1a1a1a"/><circle cx="308.11" cy="156.76" r="3.24" fill="#1a1a1a"/><circle cx="318.92" cy="156.76" r="3.24" fill="#1a1a1a"/><circle cx="340.54" cy="156.76" r="3.24" fill="#1a1a1a"/><circle cx="362.16" cy="156.76" r="3.24" fill="#1a1a1a"/><circle cx="383.78" cy="156.76" r="3.24" fill="#1a1a1a"/><circle cx="394.59" cy="156.76" r="3.24" fill="#1a1a1a"/><circle cx="5.41" cy="167.57" r="3.24" fill="#1a1a1a"/><circle cx="48.65" cy="167.57" r="3.24" fill="#1a1a1a"/><circle cx="59.46" cy="167.57" r="3.24" fill="#1a1a1a"/><circle cx="81.08" cy="167.57" r="3.24" fill="#1a1a1a"/><circle cx="135.14" cy="167.57" r="3.24" fill="#1a1a1a"/><circle cx="145.95" cy="167.57" r="3.24" fill="#1a1a1a"/><circle cx="178.38" cy="167.57" r="3.24" fill="#1a1a1a"/><circle cx="200" cy="167.57" r="3.24" fill="#1a1a1a"/><circle cx="210.81" cy="167.57" r="3.24" fill="#1a1a1a"/><circle cx="221.62" cy="167.57" r="3.24" fill="#1a1a1a"/><circle cx="232.43" cy="167.57" r="3.24" fill="#1a1a1a"/><circle cx="243.24" cy="167.57" r="3.24" fill="#1a1a1a"/><circle cx="264.86" cy="167.57" r="3.24" fill="#1a1a1a"/><circle cx="297.3" cy="167.57" r="3.24" fill="#1a1a1a"/><circle cx="351.35" cy="167.57" r="3.24" fill="#1a1a1a"/><circle cx="362.16" cy="167.57" r="3.24" fill="#1a1a1a"/><circle cx="372.97" cy="167.57" r="3.24" fill="#1a1a1a"/><circle cx="394.59" cy="167.57" r="3.24" fill="#1a1a1a"/><circle cx="5.41" cy="178.38" r="3.24" fill="#1a1a1a"/><circle cx="27.03" cy="178.38" r="3.24" fill="#1a1a1a"/><circle cx="70.27" cy="178.38" r="3.24" fill="#1a1a1a"/><circle cx="102.7" cy="178.38" r="3.24" fill="#1a1a1a"/><circle cx="167.57" cy="178.38" r="3.24" fill="#1a1a1a"/><circle cx="178.38" cy="178.38" r="3.24" fill="#1a1a1a"/><circle cx="189.19" cy="178.38" r="3.24" fill="#1a1a1a"/><circle cx="200" cy="178.38" r="3.24" fill="#1a1a1a"/><circle cx="232.43" cy="178.38" r="3.24" fill="#1a1a1a"/><circle cx="243.24" cy="178.38" r="3.24" fill="#1a1a1a"/><circle cx="254.05" cy="178.38" r="3.24" fill="#1a1a1a"/><circle cx="275.68" cy="178.38" r="3.24" fill="#1a1a1a"/><circle cx="286.49" cy="178.38" r="3.24" fill="#1a1a1a"/><circle cx="318.92" cy="178.38" r="3.24" fill="#1a1a1a"/><circle cx="329.73" cy="178.38" r="3.24" fill="#1a1a1a"/><circle cx="351.35" cy="178.38" r="3.24" fill="#1a1a1a"/><circle cx="372.97" cy="178.38" r="3.24" fill="#1a1a1a"/><circle cx="383.78" cy="178.38" r="3.24" fill="#1a1a1a"/><circle cx="394.59" cy="178.38" r="3.24" fill="#1a1a1a"/><circle cx="16.22" cy="189.19" r="3.24" fill="#1a1a1a"/><circle cx="59.46" cy="189.19" r="3.24" fill="#1a1a1a"/><circle cx="81.08" cy="189.19" r="3.24" fill="#1a1a1a"/><circle cx="102.7" cy="189.19" r="3.24" fill="#1a1a1a"/><circle cx="113.51" cy="189.19" r="3.24" fill="#1a1a1a"/><circle cx="124.32" cy="189.19" r="3.24" fill="#1a1a1a"/><circle cx="135.14" cy="189.19" r="3.24" fill="#1a1a1a"/><circle cx="145.95" cy="189.19" r="3.24" fill="#1a1a1a"/><circle cx="167.57" cy="189.19" r="3.24" fill="#1a1a1a"/><circle cx="189.19" cy="189.19" r="3.24" fill="#1a1a1a"/><circle cx="200" cy="189.19" r="3.24" fill="#1a1a1a"/><circle cx="243.24" cy="189.19" r="3.24" fill="#1a1a1a"/><circle cx="297.3" cy="189.19" r="3.24" fill="#1a1a1a"/><circle cx="308.11" cy="189.19" r="3.24" fill="#1a1a1a"/><circle cx="372.97" cy="189.19" r="3.24" fill="#1a1a1a"/><circle cx="48.65" cy="200" r="3.24" fill="#1a1a1a"/><circle cx="59.46" cy="200" r="3.24" fill="#1a1a1a"/><circle cx="70.27" cy="200" r="3.24" fill="#1a1a1a"/><circle cx="91.89" cy="200" r="3.24" fill="#1a1a1a"/><circle cx="156.76" cy="200" r="3.24" fill="#1a1a1a"/><circle cx="167.57" cy="200" r="3.24" fill="#1a1a1a"/><circle cx="178.38" cy="200" r="3.24" fill="#1a1a1a"/><circle cx="200" cy="200" r="3.24" fill="#1a1a1a"/><circle cx="210.81" cy="200" r="3.24" fill="#1a1a1a"/><circle cx="221.62" cy="200" r="3.24" fill="#1a1a1a"/><circle cx="264.86" cy="200" r="3.24" fill="#1a1a1a"/><circle cx="275.68" cy="200" r="3.24" fill="#1a1a1a"/><circle cx="297.3" cy="200" r="3.24" fill="#1a1a1a"/><circle cx="329.73" cy="200" r="3.24" fill="#1a1a1a"/><circle cx="340.54" cy="200" r="3.24" fill="#1a1a1a"/><circle cx="362.16" cy="200" r="3.24" fill="#1a1a1a"/><circle cx="372.97" cy="200" r="3.24" fill="#1a1a1a"/><circle cx="394.59" cy="200" r="3.24" fill="#1a1a1a"/><circle cx="27.03" cy="210.81" r="3.24" fill="#1a1a1a"/><circle cx="48.65" cy="210.81" r="3.24" fill="#1a1a1a"/><circle cx="102.7" cy="210.81" r="3.24" fill="#1a1a1a"/><circle cx="135.14" cy="210.81" r="3.24" fill="#1a1a1a"/><circle cx="156.76" cy="210.81" r="3.24" fill="#1a1a1a"/><circle cx="167.57" cy="210.81" r="3.24" fill="#1a1a1a"/><circle cx="200" cy="210.81" r="3.24" fill="#1a1a1a"/><circle cx="210.81" cy="210.81" r="3.24" fill="#1a1a1a"/><circle cx="243.24" cy="210.81" r="3.24" fill="#1a1a1a"/><circle cx="254.05" cy="210.81" r="3.24" fill="#1a1a1a"/><circle cx="286.49" cy="210.81" r="3.24" fill="#1a1a1a"/><circle cx="297.3" cy="210.81" r="3.24" fill="#1a1a1a"/><circle cx="308.11" cy="210.81" r="3.24" fill="#1a1a1a"/><circle cx="362.16" cy="210.81" r="3.24" fill="#1a1a1a"/><circle cx="383.78" cy="210.81" r="3.24" fill="#1a1a1a"/><circle cx="16.22" cy="221.62" r="3.24" fill="#1a1a1a"/><circle cx="27.03" cy="221.62" r="3.24" fill="#1a1a1a"/><circle cx="48.65" cy="221.62" r="3.24" fill="#1a1a1a"/><circle cx="59.46" cy="221.62" r="3.24" fill="#1a1a1a"/><circle cx="70.27" cy="221.62" r="3.24" fill="#1a1a1a"/><circle cx="91.89" cy="221.62" r="3.24" fill="#1a1a1a"/><circle cx="113.51" cy="221.62" r="3.24" fill="#1a1a1a"/><circle cx="124.32" cy="221.62" r="3.24" fill="#1a1a1a"/><circle cx="145.95" cy="221.62" r="3.24" fill="#1a1a1a"/><circle cx="178.38" cy="221.62" r="3.24" fill="#1a1a1a"/><circle cx="189.19" cy="221.62" r="3.24" fill="#1a1a1a"/><circle cx="200" cy="221.62" r="3.24" fill="#1a1a1a"/><circle cx="210.81" cy="221.62" r="3.24" fill="#1a1a1a"/><circle cx="232.43" cy="221.62" r="3.24" fill="#1a1a1a"/><circle cx="243.24" cy="221.62" r="3.24" fill="#1a1a1a"/><circle cx="275.68" cy="221.62" r="3.24" fill="#1a1a1a"/><circle cx="286.49" cy="221.62" r="3.24" fill="#1a1a1a"/><circle cx="318.92" cy="221.62" r="3.24" fill="#1a1a1a"/><circle cx="329.73" cy="221.62" r="3.24" fill="#1a1a1a"/><circle cx="340.54" cy="221.62" r="3.24" fill="#1a1a1a"/><circle cx="351.35" cy="221.62" r="3.24" fill="#1a1a1a"/><circle cx="372.97" cy="221.62" r="3.24" fill="#1a1a1a"/><circle cx="383.78" cy="221.62" r="3.24" fill="#1a1a1a"/><circle cx="394.59" cy="221.62" r="3.24" fill="#1a1a1a"/><circle cx="5.41" cy="232.43" r="3.24" fill="#1a1a1a"/><circle cx="16.22" cy="232.43" r="3.24" fill="#1a1a1a"/><circle cx="37.84" cy="232.43" r="3.24" fill="#1a1a1a"/><circle cx="48.65" cy="232.43" r="3.24" fill="#1a1a1a"/><circle cx="59.46" cy="232.43" r="3.24" fill="#1a1a1a"/><circle cx="91.89" cy="232.43" r="3.24" fill="#1a1a1a"/><circle cx="113.51" cy="232.43" r="3.24" fill="#1a1a1a"/><circle cx="124.32" cy="232.43" r="3.24" fill="#1a1a1a"/><circle cx="189.19" cy="232.43" r="3.24" fill="#1a1a1a"/><circle cx="200" cy="232.43" r="3.24" fill="#1a1a1a"/><circle cx="221.62" cy="232.43" r="3.24" fill="#1a1a1a"/><circle cx="254.05" cy="232.43" r="3.24" fill="#1a1a1a"/><circle cx="275.68" cy="232.43" r="3.24" fill="#1a1a1a"/><circle cx="297.3" cy="232.43" r="3.24" fill="#1a1a1a"/><circle cx="308.11" cy="232.43" r="3.24" fill="#1a1a1a"/><circle cx="340.54" cy="232.43" r="3.24" fill="#1a1a1a"/><circle cx="351.35" cy="232.43" r="3.24" fill="#1a1a1a"/><circle cx="372.97" cy="232.43" r="3.24" fill="#1a1a1a"/><circle cx="5.41" cy="243.24" r="3.24" fill="#1a1a1a"/><circle cx="27.03" cy="243.24" r="3.24" fill="#1a1a1a"/><circle cx="37.84" cy="243.24" r="3.24" fill="#1a1a1a"/><circle cx="48.65" cy="243.24" r="3.24" fill="#1a1a1a"/><circle cx="59.46" cy="243.24" r="3.24" fill="#1a1a1a"/><circle cx="70.27" cy="243.24" r="3.24" fill="#1a1a1a"/><circle cx="124.32" cy="243.24" r="3.24" fill="#1a1a1a"/><circle cx="135.14" cy="243.24" r="3.24" fill="#1a1a1a"/><circle cx="156.76" cy="243.24" r="3.24" fill="#1a1a1a"/><circle cx="200" cy="243.24" r="3.24" fill="#1a1a1a"/><circle cx="210.81" cy="243.24" r="3.24" fill="#1a1a1a"/><circle cx="221.62" cy="243.24" r="3.24" fill="#1a1a1a"/><circle cx="232.43" cy="243.24" r="3.24" fill="#1a1a1a"/><circle cx="254.05" cy="243.24" r="3.24" fill="#1a1a1a"/><circle cx="275.68" cy="243.24" r="3.24" fill="#1a1a1a"/><circle cx="286.49" cy="243.24" r="3.24" fill="#1a1a1a"/><circle cx="297.3" cy="243.24" r="3.24" fill="#1a1a1a"/><circle cx="329.73" cy="243.24" r="3.24" fill="#1a1a1a"/><circle cx="372.97" cy="243.24" r="3.24" fill="#1a1a1a"/><circle cx="383.78" cy="243.24" r="3.24" fill="#1a1a1a"/><circle cx="394.59" cy="243.24" r="3.24" fill="#1a1a1a"/><circle cx="27.03" cy="254.05" r="3.24" fill="#1a1a1a"/><circle cx="37.84" cy="254.05" r="3.24" fill="#1a1a1a"/><circle cx="48.65" cy="254.05" r="3.24" fill="#1a1a1a"/><circle cx="102.7" cy="254.05" r="3.24" fill="#1a1a1a"/><circle cx="113.51" cy="254.05" r="3.24" fill="#1a1a1a"/><circle cx="124.32" cy="254.05" r="3.24" fill="#1a1a1a"/><circle cx="135.14" cy="254.05" r="3.24" fill="#1a1a1a"/><circle cx="145.95" cy="254.05" r="3.24" fill="#1a1a1a"/><circle cx="156.76" cy="254.05" r="3.24" fill="#1a1a1a"/><circle cx="167.57" cy="254.05" r="3.24" fill="#1a1a1a"/><circle cx="210.81" cy="254.05" r="3.24" fill="#1a1a1a"/><circle cx="243.24" cy="254.05" r="3.24" fill="#1a1a1a"/><circle cx="264.86" cy="254.05" r="3.24" fill="#1a1a1a"/><circle cx="275.68" cy="254.05" r="3.24" fill="#1a1a1a"/><circle cx="297.3" cy="254.05" r="3.24" fill="#1a1a1a"/><circle cx="318.92" cy="254.05" r="3.24" fill="#1a1a1a"/><circle cx="329.73" cy="254.05" r="3.24" fill="#1a1a1a"/><circle cx="340.54" cy="254.05" r="3.24" fill="#1a1a1a"/><circle cx="362.16" cy="254.05" r="3.24" fill="#1a1a1a"/><circle cx="383.78" cy="254.05" r="3.24" fill="#1a1a1a"/><circle cx="394.59" cy="254.05" r="3.24" fill="#1a1a1a"/><circle cx="5.41" cy="264.86" r="3.24" fill="#1a1a1a"/><circle cx="70.27" cy="264.86" r="3.24" fill="#1a1a1a"/><circle cx="81.08" cy="264.86" r="3.24" fill="#1a1a1a"/><circle cx="102.7" cy="264.86" r="3.24" fill="#1a1a1a"/><circle cx="113.51" cy="264.86" r="3.24" fill="#1a1a1a"/><circle cx="135.14" cy="264.86" r="3.24" fill="#1a1a1a"/><circle cx="156.76" cy="264.86" r="3.24" fill="#1a1a1a"/><circle cx="167.57" cy="264.86" r="3.24" fill="#1a1a1a"/><circle cx="178.38" cy="264.86" r="3.24" fill="#1a1a1a"/><circle cx="210.81" cy="264.86" r="3.24" fill="#1a1a1a"/><circle cx="221.62" cy="264.86" r="3.24" fill="#1a1a1a"/><circle cx="232.43" cy="264.86" r="3.24" fill="#1a1a1a"/><circle cx="264.86" cy="264.86" r="3.24" fill="#1a1a1a"/><circle cx="275.68" cy="264.86" r="3.24" fill="#1a1a1a"/><circle cx="308.11" cy="264.86" r="3.24" fill="#1a1a1a"/><circle cx="329.73" cy="264.86" r="3.24" fill="#1a1a1a"/><circle cx="340.54" cy="264.86" r="3.24" fill="#1a1a1a"/><circle cx="362.16" cy="264.86" r="3.24" fill="#1a1a1a"/><circle cx="5.41" cy="275.68" r="3.24" fill="#1a1a1a"/><circle cx="37.84" cy="275.68" r="3.24" fill="#1a1a1a"/><circle cx="48.65" cy="275.68" r="3.24" fill="#1a1a1a"/><circle cx="124.32" cy="275.68" r="3.24" fill="#1a1a1a"/><circle cx="156.76" cy="275.68" r="3.24" fill="#1a1a1a"/><circle cx="167.57" cy="275.68" r="3.24" fill="#1a1a1a"/><circle cx="210.81" cy="275.68" r="3.24" fill="#1a1a1a"/><circle cx="221.62" cy="275.68" r="3.24" fill="#1a1a1a"/><circle cx="243.24" cy="275.68" r="3.24" fill="#1a1a1a"/><circle cx="318.92" cy="275.68" r="3.24" fill="#1a1a1a"/><circle cx="362.16" cy="275.68" r="3.24" fill="#1a1a1a"/><circle cx="372.97" cy="275.68" r="3.24" fill="#1a1a1a"/><circle cx="5.41" cy="286.49" r="3.24" fill="#1a1a1a"/><circle cx="27.03" cy="286.49" r="3.24" fill="#1a1a1a"/><circle cx="37.84" cy="286.49" r="3.24" fill="#1a1a1a"/><circle cx="59.46" cy="286.49" r="3.24" fill="#1a1a1a"/><circle cx="70.27" cy="286.49" r="3.24" fill="#1a1a1a"/><circle cx="135.14" cy="286.49" r="3.24" fill="#1a1a1a"/><circle cx="145.95" cy="286.49" r="3.24" fill="#1a1a1a"/><circle cx="178.38" cy="286.49" r="3.24" fill="#1a1a1a"/><circle cx="200" cy="286.49" r="3.24" fill="#1a1a1a"/><circle cx="210.81" cy="286.49" r="3.24" fill="#1a1a1a"/><circle cx="254.05" cy="286.49" r="3.24" fill="#1a1a1a"/><circle cx="264.86" cy="286.49" r="3.24" fill="#1a1a1a"/><circle cx="275.68" cy="286.49" r="3.24" fill="#1a1a1a"/><circle cx="286.49" cy="286.49" r="3.24" fill="#1a1a1a"/><circle cx="297.3" cy="286.49" r="3.24" fill="#1a1a1a"/><circle cx="329.73" cy="286.49" r="3.24" fill="#1a1a1a"/><circle cx="372.97" cy="286.49" r="3.24" fill="#1a1a1a"/><circle cx="383.78" cy="286.49" r="3.24" fill="#1a1a1a"/><circle cx="394.59" cy="286.49" r="3.24" fill="#1a1a1a"/><circle cx="5.41" cy="297.3" r="3.24" fill="#1a1a1a"/><circle cx="27.03" cy="297.3" r="3.24" fill="#1a1a1a"/><circle cx="48.65" cy="297.3" r="3.24" fill="#1a1a1a"/><circle cx="59.46" cy="297.3" r="3.24" fill="#1a1a1a"/><circle cx="81.08" cy="297.3" r="3.24" fill="#1a1a1a"/><circle cx="113.51" cy="297.3" r="3.24" fill="#1a1a1a"/><circle cx="124.32" cy="297.3" r="3.24" fill="#1a1a1a"/><circle cx="145.95" cy="297.3" r="3.24" fill="#1a1a1a"/><circle cx="156.76" cy="297.3" r="3.24" fill="#1a1a1a"/><circle cx="167.57" cy="297.3" r="3.24" fill="#1a1a1a"/><circle cx="178.38" cy="297.3" r="3.24" fill="#1a1a1a"/><circle cx="189.19" cy="297.3" r="3.24" fill="#1a1a1a"/><circle cx="210.81" cy="297.3" r="3.24" fill="#1a1a1a"/><circle cx="221.62" cy="297.3" r="3.24" fill="#1a1a1a"/><circle cx="232.43" cy="297.3" r="3.24" fill="#1a1a1a"/><circle cx="243.24" cy="297.3" r="3.24" fill="#1a1a1a"/><circle cx="254.05" cy="297.3" r="3.24" fill="#1a1a1a"/><circle cx="297.3" cy="297.3" r="3.24" fill="#1a1a1a"/><circle cx="308.11" cy="297.3" r="3.24" fill="#1a1a1a"/><circle cx="318.92" cy="297.3" r="3.24" fill="#1a1a1a"/><circle cx="340.54" cy="297.3" r="3.24" fill="#1a1a1a"/><circle cx="351.35" cy="297.3" r="3.24" fill="#1a1a1a"/><circle cx="362.16" cy="297.3" r="3.24" fill="#1a1a1a"/><circle cx="372.97" cy="297.3" r="3.24" fill="#1a1a1a"/><circle cx="383.78" cy="297.3" r="3.24" fill="#1a1a1a"/><circle cx="5.41" cy="308.11" r="3.24" fill="#1a1a1a"/><circle cx="27.03" cy="308.11" r="3.24" fill="#1a1a1a"/><circle cx="37.84" cy="308.11" r="3.24" fill="#1a1a1a"/><circle cx="48.65" cy="308.11" r="3.24" fill="#1a1a1a"/><circle cx="59.46" cy="308.11" r="3.24" fill="#1a1a1a"/><circle cx="70.27" cy="308.11" r="3.24" fill="#1a1a1a"/><circle cx="81.08" cy="308.11" r="3.24" fill="#1a1a1a"/><circle cx="102.7" cy="308.11" r="3.24" fill="#1a1a1a"/><circle cx="135.14" cy="308.11" r="3.24" fill="#1a1a1a"/><circle cx="145.95" cy="308.11" r="3.24" fill="#1a1a1a"/><circle cx="156.76" cy="308.11" r="3.24" fill="#1a1a1a"/><circle cx="167.57" cy="308.11" r="3.24" fill="#1a1a1a"/><circle cx="210.81" cy="308.11" r="3.24" fill="#1a1a1a"/><circle cx="221.62" cy="308.11" r="3.24" fill="#1a1a1a"/><circle cx="254.05" cy="308.11" r="3.24" fill="#1a1a1a"/><circle cx="264.86" cy="308.11" r="3.24" fill="#1a1a1a"/><circle cx="275.68" cy="308.11" r="3.24" fill="#1a1a1a"/><circle cx="286.49" cy="308.11" r="3.24" fill="#1a1a1a"/><circle cx="297.3" cy="308.11" r="3.24" fill="#1a1a1a"/><circle cx="308.11" cy="308.11" r="3.24" fill="#1a1a1a"/><circle cx="318.92" cy="308.11" r="3.24" fill="#1a1a1a"/><circle cx="329.73" cy="308.11" r="3.24" fill="#1a1a1a"/><circle cx="340.54" cy="308.11" r="3.24" fill="#1a1a1a"/><circle cx="351.35" cy="308.11" r="3.24" fill="#1a1a1a"/><circle cx="372.97" cy="308.11" r="3.24" fill="#1a1a1a"/><circle cx="383.78" cy="308.11" r="3.24" fill="#1a1a1a"/><circle cx="91.89" cy="318.92" r="3.24" fill="#1a1a1a"/><circle cx="124.32" cy="318.92" r="3.24" fill="#1a1a1a"/><circle cx="135.14" cy="318.92" r="3.24" fill="#1a1a1a"/><circle cx="167.57" cy="318.92" r="3.24" fill="#1a1a1a"/><circle cx="178.38" cy="318.92" r="3.24" fill="#1a1a1a"/><circle cx="189.19" cy="318.92" r="3.24" fill="#1a1a1a"/><circle cx="210.81" cy="318.92" r="3.24" fill="#1a1a1a"/><circle cx="221.62" cy="318.92" r="3.24" fill="#1a1a1a"/><circle cx="232.43" cy="318.92" r="3.24" fill="#1a1a1a"/><circle cx="254.05" cy="318.92" r="3.24" fill="#1a1a1a"/><circle cx="264.86" cy="318.92" r="3.24" fill="#1a1a1a"/><circle cx="275.68" cy="318.92" r="3.24" fill="#1a1a1a"/><circle cx="308.11" cy="318.92" r="3.24" fill="#1a1a1a"/><circle cx="351.35" cy="318.92" r="3.24" fill="#1a1a1a"/><circle cx="362.16" cy="318.92" r="3.24" fill="#1a1a1a"/><circle cx="383.78" cy="318.92" r="3.24" fill="#1a1a1a"/><circle cx="135.14" cy="329.73" r="3.24" fill="#1a1a1a"/><circle cx="145.95" cy="329.73" r="3.24" fill="#1a1a1a"/><circle cx="156.76" cy="329.73" r="3.24" fill="#1a1a1a"/><circle cx="178.38" cy="329.73" r="3.24" fill="#1a1a1a"/><circle cx="189.19" cy="329.73" r="3.24" fill="#1a1a1a"/><circle cx="200" cy="329.73" r="3.24" fill="#1a1a1a"/><circle cx="210.81" cy="329.73" r="3.24" fill="#1a1a1a"/><circle cx="232.43" cy="329.73" r="3.24" fill="#1a1a1a"/><circle cx="254.05" cy="329.73" r="3.24" fill="#1a1a1a"/><circle cx="264.86" cy="329.73" r="3.24" fill="#1a1a1a"/><circle cx="286.49" cy="329.73" r="3.24" fill="#1a1a1a"/><circle cx="308.11" cy="329.73" r="3.24" fill="#1a1a1a"/><circle cx="329.73" cy="329.73" r="3.24" fill="#1a1a1a"/><circle cx="351.35" cy="329.73" r="3.24" fill="#1a1a1a"/><circle cx="362.16" cy="329.73" r="3.24" fill="#1a1a1a"/><circle cx="372.97" cy="329.73" r="3.24" fill="#1a1a1a"/><circle cx="394.59" cy="329.73" r="3.24" fill="#1a1a1a"/><circle cx="91.89" cy="340.54" r="3.24" fill="#1a1a1a"/><circle cx="113.51" cy="340.54" r="3.24" fill="#1a1a1a"/><circle cx="135.14" cy="340.54" r="3.24" fill="#1a1a1a"/><circle cx="145.95" cy="340.54" r="3.24" fill="#1a1a1a"/><circle cx="167.57" cy="340.54" r="3.24" fill="#1a1a1a"/><circle cx="178.38" cy="340.54" r="3.24" fill="#1a1a1a"/><circle cx="210.81" cy="340.54" r="3.24" fill="#1a1a1a"/><circle cx="286.49" cy="340.54" r="3.24" fill="#1a1a1a"/><circle cx="308.11" cy="340.54" r="3.24" fill="#1a1a1a"/><circle cx="351.35" cy="340.54" r="3.24" fill="#1a1a1a"/><circle cx="362.16" cy="340.54" r="3.24" fill="#1a1a1a"/><circle cx="383.78" cy="340.54" r="3.24" fill="#1a1a1a"/><circle cx="394.59" cy="340.54" r="3.24" fill="#1a1a1a"/><circle cx="113.51" cy="351.35" r="3.24" fill="#1a1a1a"/><circle cx="124.32" cy="351.35" r="3.24" fill="#1a1a1a"/><circle cx="135.14" cy="351.35" r="3.24" fill="#1a1a1a"/><circle cx="145.95" cy="351.35" r="3.24" fill="#1a1a1a"/><circle cx="167.57" cy="351.35" r="3.24" fill="#1a1a1a"/><circle cx="189.19" cy="351.35" r="3.24" fill="#1a1a1a"/><circle cx="221.62" cy="351.35" r="3.24" fill="#1a1a1a"/><circle cx="232.43" cy="351.35" r="3.24" fill="#1a1a1a"/><circle cx="275.68" cy="351.35" r="3.24" fill="#1a1a1a"/><circle cx="286.49" cy="351.35" r="3.24" fill="#1a1a1a"/><circle cx="297.3" cy="351.35" r="3.24" fill="#1a1a1a"/><circle cx="308.11" cy="351.35" r="3.24" fill="#1a1a1a"/><circle cx="318.92" cy="351.35" r="3.24" fill="#1a1a1a"/><circle cx="329.73" cy="351.35" r="3.24" fill="#1a1a1a"/><circle cx="340.54" cy="351.35" r="3.24" fill="#1a1a1a"/><circle cx="351.35" cy="351.35" r="3.24" fill="#1a1a1a"/><circle cx="372.97" cy="351.35" r="3.24" fill="#1a1a1a"/><circle cx="135.14" cy="362.16" r="3.24" fill="#1a1a1a"/><circle cx="145.95" cy="362.16" r="3.24" fill="#1a1a1a"/><circle cx="156.76" cy="362.16" r="3.24" fill="#1a1a1a"/><circle cx="178.38" cy="362.16" r="3.24" fill="#1a1a1a"/><circle cx="189.19" cy="362.16" r="3.24" fill="#1a1a1a"/><circle cx="200" cy="362.16" r="3.24" fill="#1a1a1a"/><circle cx="232.43" cy="362.16" r="3.24" fill="#1a1a1a"/><circle cx="243.24" cy="362.16" r="3.24" fill="#1a1a1a"/><circle cx="264.86" cy="362.16" r="3.24" fill="#1a1a1a"/><circle cx="286.49" cy="362.16" r="3.24" fill="#1a1a1a"/><circle cx="297.3" cy="362.16" r="3.24" fill="#1a1a1a"/><circle cx="308.11" cy="362.16" r="3.24" fill="#1a1a1a"/><circle cx="329.73" cy="362.16" r="3.24" fill="#1a1a1a"/><circle cx="362.16" cy="362.16" r="3.24" fill="#1a1a1a"/><circle cx="372.97" cy="362.16" r="3.24" fill="#1a1a1a"/><circle cx="102.7" cy="372.97" r="3.24" fill="#1a1a1a"/><circle cx="145.95" cy="372.97" r="3.24" fill="#1a1a1a"/><circle cx="178.38" cy="372.97" r="3.24" fill="#1a1a1a"/><circle cx="189.19" cy="372.97" r="3.24" fill="#1a1a1a"/><circle cx="200" cy="372.97" r="3.24" fill="#1a1a1a"/><circle cx="221.62" cy="372.97" r="3.24" fill="#1a1a1a"/><circle cx="275.68" cy="372.97" r="3.24" fill="#1a1a1a"/><circle cx="318.92" cy="372.97" r="3.24" fill="#1a1a1a"/><circle cx="340.54" cy="372.97" r="3.24" fill="#1a1a1a"/><circle cx="394.59" cy="372.97" r="3.24" fill="#1a1a1a"/><circle cx="145.95" cy="383.78" r="3.24" fill="#1a1a1a"/><circle cx="156.76" cy="383.78" r="3.24" fill="#1a1a1a"/><circle cx="167.57" cy="383.78" r="3.24" fill="#1a1a1a"/><circle cx="189.19" cy="383.78" r="3.24" fill="#1a1a1a"/><circle cx="210.81" cy="383.78" r="3.24" fill="#1a1a1a"/><circle cx="221.62" cy="383.78" r="3.24" fill="#1a1a1a"/><circle cx="232.43" cy="383.78" r="3.24" fill="#1a1a1a"/><circle cx="264.86" cy="383.78" r="3.24" fill="#1a1a1a"/><circle cx="286.49" cy="383.78" r="3.24" fill="#1a1a1a"/><circle cx="308.11" cy="383.78" r="3.24" fill="#1a1a1a"/><circle cx="329.73" cy="383.78" r="3.24" fill="#1a1a1a"/><circle cx="362.16" cy="383.78" r="3.24" fill="#1a1a1a"/><circle cx="394.59" cy="383.78" r="3.24" fill="#1a1a1a"/><circle cx="113.51" cy="394.59" r="3.24" fill="#1a1a1a"/><circle cx="135.14" cy="394.59" r="3.24" fill="#1a1a1a"/><circle cx="145.95" cy="394.59" r="3.24" fill="#1a1a1a"/><circle cx="178.38" cy="394.59" r="3.24" fill="#1a1a1a"/><circle cx="200" cy="394.59" r="3.24" fill="#1a1a1a"/><circle cx="210.81" cy="394.59" r="3.24" fill="#1a1a1a"/><circle cx="221.62" cy="394.59" r="3.24" fill="#1a1a1a"/><circle cx="232.43" cy="394.59" r="3.24" fill="#1a1a1a"/><circle cx="243.24" cy="394.59" r="3.24" fill="#1a1a1a"/><circle cx="254.05" cy="394.59" r="3.24" fill="#1a1a1a"/><circle cx="308.11" cy="394.59" r="3.24" fill="#1a1a1a"/><circle cx="362.16" cy="394.59" r="3.24" fill="#1a1a1a"/><circle cx="394.59" cy="394.59" r="3.24" fill="#1a1a1a"/><rect x="5.41" y="5.41" width="64.86" height="64.86" rx="16.22" fill="none" stroke="#1a1a1a" stroke-width="10.81"/><rect x="21.62" y="21.62" width="32.43" height="32.43" rx="8.11" fill="#1a1a1a"/><rect x="329.73" y="5.41" width="64.86" height="64.86" rx="16.22" fill="none" stroke="#1a1a1a" stroke-width="10.81"/><rect x="345.95" y="21.62" width="32.43" height="32.43" rx="8.11" fill="#1a1a1a"/><rect x="5.41" y="329.73" width="64.86" height="64.86" rx="16.22" fill="none" stroke="#1a1a1a" stroke-width="10.81"/><rect x="21.62" y="345.95" width="32.43" height="32.43" rx="8.11" fill="#1a1a1a"/></svg>